<?xml version="1.0" encoding="UTF-8" standalone="no"?>
<!DOCTYPE svg PUBLIC "-//W3C//DTD SVG 1.1//EN" "http://www.w3.org/Graphics/SVG/1.1/DTD/svg11.dtd">
<!-- Created with Linearity Curve (http://linearity.io/curve) -->
<svg height="100%" stroke-miterlimit="10" style="fill-rule:nonzero;clip-rule:evenodd;stroke-linecap:round;stroke-linejoin:round;" version="1.1" viewBox="0 0 1725.7 188.62" width="100%" xml:space="preserve" xmlns="http://www.w3.org/2000/svg" xmlns:xlink="http://www.w3.org/1999/xlink">
<defs/>
<g id="Layer-1">
<g fill="#000000" opacity="1" stroke="none">
<path d="M340.039 140.201C335.436 141.796 330.742 143.015 325.957 143.859C321.172 144.702 316.455 145.123 311.807 145.123C307.204 145.123 302.897 144.645 298.887 143.688C294.876 142.731 291.23 141.341 287.949 139.518C280.43 135.234 274.517 129.252 270.21 121.573C265.903 113.894 263.75 105.498 263.75 96.383C263.75 81.7997 268.205 70.0532 277.114 61.1437C286.024 52.2342 297.77 47.7795 312.353 47.7795C316.546 47.7795 320.955 48.1782 325.581 48.9758C330.207 49.7733 335.026 50.9696 340.039 52.5646L340.039 74.0978L332.246 74.0978L330.127 61.383L328.281 58.8537C325.592 57.6232 322.972 56.7118 320.42 56.1193C317.868 55.5269 315.27 55.2307 312.627 55.2307C302.054 55.2307 293.669 58.8309 287.471 66.0314C281.273 73.232 278.174 83.0301 278.174 95.426C278.174 108.597 281.409 118.93 287.881 126.427C294.352 133.924 303.307 137.672 314.746 137.672C316.751 137.672 318.768 137.524 320.796 137.228C322.824 136.931 324.863 136.464 326.914 135.826L329.101 133.639L332.519 118.053L340.039 118.053L340.039 140.201Z"/>
<path d="M383.857 80.6603C378.024 80.6603 373.341 83.2922 369.809 88.5558C366.278 93.8195 364.512 100.849 364.512 109.645C364.512 118.44 366.289 125.47 369.844 130.734C373.398 135.997 378.07 138.629 383.857 138.629C389.736 138.629 394.453 136.009 398.008 130.768C401.562 125.527 403.34 118.486 403.34 109.645C403.34 100.895 401.551 93.8765 397.974 88.59C394.396 83.3036 389.691 80.6603 383.857 80.6603ZM383.857 74.6447C393.382 74.6447 401.198 77.9146 407.305 84.4543C413.411 90.994 416.465 99.3908 416.465 109.645C416.465 119.899 413.4 128.295 407.27 134.835C401.141 141.375 393.337 144.645 383.857 144.645C374.378 144.645 366.597 141.386 360.513 134.869C354.429 128.352 351.387 119.944 351.387 109.645C351.387 99.3452 354.406 90.937 360.444 84.4201C366.483 77.9032 374.287 74.6447 383.857 74.6447Z"/>
<path d="M425.83 143.414L425.83 138.356L433.418 137.672L435.81 135.416L435.81 84.7619L425.83 84.7619L425.83 80.3869L442.1 75.3967L447.432 75.3967L447.432 83.0529C453.037 79.954 457.549 77.7779 460.967 76.5246C464.385 75.2713 467.393 74.6447 469.99 74.6447C476.097 74.6447 480.768 76.4676 484.004 80.1135C487.24 83.7593 488.857 89.0458 488.857 95.9728L488.857 135.416L491.25 137.672L498.769 138.356L498.769 143.414L468.144 143.414L468.144 138.356L474.844 137.672L477.236 135.416L477.236 98.3654C477.236 93.1245 476.154 89.4103 473.989 87.2228C471.824 85.0353 468.19 83.9416 463.086 83.9416C460.853 83.9416 458.437 84.3176 455.84 85.0695C453.242 85.8215 450.439 86.9722 447.432 88.5217L447.432 135.416L449.824 137.672L456.523 138.356L456.523 143.414L425.83 143.414Z"/>
<path d="M513.467 84.4885L504.648 84.4885L504.648 80.1135L513.877 76.0803L519.893 63.0236L525.088 63.0236L525.088 77.926L546.416 77.926L546.416 84.4885L525.088 84.4885L525.088 121.403C525.088 127.464 525.931 131.531 527.617 133.605C529.303 135.678 532.334 136.715 536.709 136.715C538.213 136.715 539.774 136.624 541.392 136.442C543.009 136.259 544.684 135.963 546.416 135.553L546.416 140.748C543.226 141.751 540.081 142.514 536.982 143.038C533.883 143.562 530.898 143.824 528.027 143.824C522.65 143.824 518.879 142.81 516.714 140.782C514.549 138.754 513.467 135.052 513.467 129.674L513.467 84.4885Z"/>
<path d="M598.164 100.69L598.164 98.5021C598.164 92.8511 596.922 88.5217 594.438 85.5139C591.955 82.506 588.343 81.0021 583.603 81.0021C578.955 81.0021 574.933 82.8592 571.538 86.5734C568.143 90.2876 566.24 94.993 565.83 100.69L598.164 100.69ZM610.674 128.58L610.674 136.305C606.527 139.039 602.22 141.113 597.754 142.526C593.288 143.938 588.799 144.645 584.287 144.645C575.036 144.645 567.528 141.466 561.763 135.109C555.998 128.751 553.115 120.468 553.115 110.26C553.115 99.7782 556.134 91.2219 562.173 84.591C568.211 77.9601 575.97 74.6447 585.449 74.6447C593.197 74.6447 599.337 77.117 603.872 82.0617C608.406 87.0064 610.674 93.7398 610.674 102.262C610.674 103.401 610.662 104.267 610.64 104.86C610.617 105.452 610.56 106.022 610.469 106.569L565.146 106.569L565.146 108.141C565.146 116.936 567.266 123.898 571.504 129.025C575.742 134.152 581.462 136.715 588.662 136.715C591.989 136.715 595.441 136.054 599.018 134.733C602.596 133.411 606.481 131.36 610.674 128.58Z"/>
<path d="M619.219 76.0803L649.297 76.0803L649.297 81.2756L642.871 82.0959L642.187 83.4631L653.945 101.852L666.66 83.9416L665.566 82.0959L658.799 81.2756L658.799 76.0803L684.023 76.0803L684.023 81.2756L676.162 82.6428L657.705 107.184L678.281 137.125L686.689 138.219L686.689 143.414L656.885 143.414L656.885 138.219L662.764 137.262L663.447 136.168L650.459 115.25L636.172 135.553L636.855 137.262L644.853 138.219L644.853 143.414L618.398 143.414L618.398 138.219L626.328 137.125L646.494 110.123L627.764 82.7795L619.219 81.2756L619.219 76.0803Z"/>
<path d="M699.404 84.4885L690.586 84.4885L690.586 80.1135L699.814 76.0803L705.83 63.0236L711.025 63.0236L711.025 77.926L732.353 77.926L732.353 84.4885L711.025 84.4885L711.025 121.403C711.025 127.464 711.868 131.531 713.555 133.605C715.241 135.678 718.271 136.715 722.646 136.715C724.15 136.715 725.711 136.624 727.329 136.442C728.947 136.259 730.622 135.963 732.353 135.553L732.353 140.748C729.163 141.751 726.019 142.514 722.92 143.038C719.821 143.562 716.836 143.824 713.965 143.824C708.587 143.824 704.816 142.81 702.651 140.782C700.487 138.754 699.404 135.052 699.404 129.674L699.404 84.4885Z"/>
<path d="M831.133 98.3654L866.133 98.3654L866.133 104.108L858.408 104.791L856.084 106.705L856.084 140.201C850.433 141.842 845.203 143.072 840.395 143.893C835.587 144.713 831.156 145.123 827.1 145.123C822.451 145.123 818.087 144.645 814.009 143.688C809.93 142.731 806.25 141.341 802.969 139.518C795.449 135.234 789.536 129.264 785.229 121.608C780.923 113.951 778.769 105.543 778.769 96.383C778.769 81.5262 783.304 69.7114 792.373 60.9387C801.442 52.1659 813.656 47.7795 829.014 47.7795C833.252 47.7795 837.627 48.1213 842.139 48.8049C846.65 49.4885 851.253 50.5139 855.947 51.881L855.947 74.0978L848.086 74.0978L845.967 61.383L843.984 58.8537C841.341 57.6232 838.709 56.7118 836.089 56.1193C833.468 55.5269 830.791 55.2307 828.057 55.2307C817.256 55.2307 808.745 58.8081 802.524 65.9631C796.304 73.118 793.193 82.939 793.193 95.426C793.193 108.505 796.418 118.816 802.866 126.359C809.315 133.901 818.076 137.672 829.15 137.672C831.292 137.672 833.559 137.524 835.952 137.228C838.345 136.931 840.84 136.464 843.437 135.826L843.437 106.705L841.045 104.791L831.133 104.108L831.133 98.3654Z"/>
<path d="M874.062 143.414L874.062 138.356L881.514 137.672L883.906 135.416L883.906 84.7619L874.062 84.7619L874.062 80.3869L890.332 75.3967L895.664 75.3967L895.664 88.5217C897.943 86.1974 900.324 83.9074 902.808 81.6516C905.291 79.3957 907.9 77.174 910.635 74.9865C911.045 74.8498 911.489 74.7586 911.968 74.7131C912.446 74.6675 913.164 74.6447 914.121 74.6447C915.534 74.6447 916.924 74.7928 918.291 75.0891C919.658 75.3853 921.071 75.8524 922.529 76.4904L922.529 88.5217L918.086 88.5217C917.174 87.4279 916.115 86.5962 914.907 86.0266C913.699 85.4569 912.366 85.1721 910.908 85.1721C908.675 85.1721 906.317 86.0038 903.833 87.6672C901.349 89.3306 898.626 91.9169 895.664 95.426L895.664 135.416L898.057 137.672L907.832 138.356L907.832 143.414L874.062 143.414Z"/>
<path d="M970.107 130.563L970.107 105.885C958.395 109.121 950.705 112.083 947.036 114.772C943.367 117.46 941.533 120.992 941.533 125.367C941.533 128.876 942.547 131.668 944.575 133.741C946.603 135.815 949.326 136.852 952.744 136.852C954.932 136.852 957.449 136.328 960.298 135.279C963.146 134.231 966.416 132.659 970.107 130.563ZM970.107 135.279C965.596 138.378 961.46 140.668 957.7 142.15C953.94 143.631 950.42 144.371 947.139 144.371C941.715 144.371 937.375 142.731 934.116 139.449C930.858 136.168 929.228 131.839 929.228 126.461C929.228 120.491 931.678 115.797 936.577 112.379C941.476 108.961 952.653 105.156 970.107 100.963L970.107 96.5197C970.107 90.6408 969.15 86.562 967.236 84.2834C965.322 82.0047 961.995 80.8654 957.256 80.8654C955.478 80.8654 953.724 81.0477 951.992 81.4123C950.26 81.7769 948.46 82.3238 946.592 83.0529L946.592 94.8107L936.953 94.8107C935.267 94.8107 934.116 94.5031 933.501 93.8879C932.886 93.2726 932.578 92.1447 932.578 90.5041C932.578 85.9468 935.21 82.1642 940.474 79.1564C945.737 76.1486 952.539 74.6447 960.879 74.6447C968.216 74.6447 973.548 76.2398 976.875 79.4299C980.202 82.62 981.865 87.7469 981.865 94.8107L981.865 135.416L984.258 137.672L991.641 138.356L991.641 143.414L971.953 143.414L970.107 135.279Z"/>
<path d="M1019.05 135.279C1021.33 136.054 1023.46 136.624 1025.44 136.988C1027.43 137.353 1029.28 137.535 1031.02 137.535C1037.94 137.535 1043.55 134.949 1047.83 129.777C1052.12 124.604 1054.26 117.757 1054.26 109.235C1054.26 101.35 1052.4 95.0842 1048.69 90.4357C1044.97 85.7873 1040.02 83.4631 1033.82 83.4631C1031.59 83.4631 1029.28 83.8504 1026.91 84.6252C1024.54 85.3999 1021.92 86.6076 1019.05 88.2482L1019.05 135.279ZM997.519 173.903L997.519 168.912L1005.11 168.16L1007.29 165.973L1007.29 84.7619L997.519 84.7619L997.519 80.3869L1013.79 75.3967L1019.05 75.3967L1019.05 83.0529C1022.88 80.1818 1026.47 78.0627 1029.82 76.6955C1033.17 75.3283 1036.46 74.6447 1039.7 74.6447C1047.54 74.6447 1053.97 77.6981 1059.01 83.8049C1064.04 89.9116 1066.56 97.7958 1066.56 107.457C1066.56 118.44 1063.42 127.247 1057.13 133.878C1050.84 140.509 1042.5 143.824 1032.11 143.824C1030.33 143.824 1028.37 143.722 1026.23 143.517C1024.09 143.312 1021.72 143.004 1019.12 142.594L1019.05 165.973L1021.45 168.16L1030.4 168.912L1030.4 173.903L997.519 173.903Z"/>
<path d="M1091.17 40.3967L1096.5 40.3967L1096.5 83.0529C1102.02 79.9995 1106.52 77.8348 1110 76.5588C1113.49 75.2827 1116.53 74.6447 1119.13 74.6447C1125.28 74.6447 1129.98 76.4676 1133.21 80.1135C1136.45 83.7593 1138.07 89.0458 1138.07 95.9728L1138.07 135.416L1140.46 137.672L1147.84 138.356L1147.84 143.414L1117.35 143.414L1117.35 138.356L1123.92 137.672L1126.31 135.416L1126.31 98.3654C1126.31 93.1245 1125.21 89.4103 1123.03 87.2228C1120.84 85.0353 1117.22 83.9416 1112.16 83.9416C1109.93 83.9416 1107.51 84.3176 1104.91 85.0695C1102.31 85.8215 1099.51 86.9722 1096.5 88.5217L1096.5 135.416L1098.96 137.672L1105.6 138.356L1105.6 143.414L1074.9 143.414L1074.9 138.356L1082.49 137.672L1084.88 135.416L1084.88 49.7619L1074.08 49.7619L1074.08 45.3869L1091.17 40.3967Z"/>
<path d="M1216.82 100.69C1219.37 100.963 1221.34 101.157 1222.73 101.271C1224.12 101.385 1225.25 101.442 1226.11 101.442C1234.09 101.442 1240.16 99.4136 1244.33 95.3576C1248.5 91.3016 1250.59 85.4227 1250.59 77.7209C1250.59 70.2925 1248.43 64.801 1244.13 61.2463C1239.82 57.6916 1233.15 55.9142 1224.13 55.9142C1222.22 55.9142 1220.75 55.937 1219.72 55.9826C1218.7 56.0282 1217.73 56.0965 1216.82 56.1877L1216.82 100.69ZM1193.92 143.414L1193.92 137.672L1201.85 136.988L1204.24 135.006L1204.24 57.8967L1201.85 55.9142L1192.75 55.0939L1192.75 49.4885L1224.68 49.4885C1238.71 49.4885 1248.71 51.6988 1254.65 56.1193C1260.6 60.5399 1263.57 67.8544 1263.57 78.0627C1263.57 87.1773 1260.3 94.4689 1253.76 99.9377C1247.22 105.406 1238.42 108.141 1227.34 108.141C1226.2 108.141 1224.81 108.084 1223.17 107.97C1221.53 107.856 1219.44 107.685 1216.88 107.457L1216.82 135.006L1219.21 136.988L1229.19 137.672L1229.19 143.414L1193.92 143.414Z"/>
<path d="M1271.57 143.414L1271.57 138.356L1279.02 137.672L1281.42 135.416L1281.42 84.7619L1271.57 84.7619L1271.57 80.3869L1287.84 75.3967L1293.17 75.3967L1293.17 88.5217C1295.45 86.1974 1297.83 83.9074 1300.32 81.6516C1302.8 79.3957 1305.41 77.174 1308.14 74.9865C1308.55 74.8498 1309 74.7586 1309.48 74.7131C1309.96 74.6675 1310.67 74.6447 1311.63 74.6447C1313.04 74.6447 1314.43 74.7928 1315.8 75.0891C1317.17 75.3853 1318.58 75.8524 1320.04 76.4904L1320.04 88.5217L1315.6 88.5217C1314.68 87.4279 1313.62 86.5962 1312.42 86.0266C1311.21 85.4569 1309.88 85.1721 1308.42 85.1721C1306.18 85.1721 1303.83 86.0038 1301.34 87.6672C1298.86 89.3306 1296.14 91.9169 1293.17 95.426L1293.17 135.416L1295.57 137.672L1305.34 138.356L1305.34 143.414L1271.57 143.414Z"/>
<path d="M1358.53 80.6603C1352.69 80.6603 1348.01 83.2922 1344.48 88.5558C1340.95 93.8195 1339.18 100.849 1339.18 109.645C1339.18 118.44 1340.96 125.47 1344.51 130.734C1348.07 135.997 1352.74 138.629 1358.53 138.629C1364.4 138.629 1369.12 136.009 1372.68 130.768C1376.23 125.527 1378.01 118.486 1378.01 109.645C1378.01 100.895 1376.22 93.8765 1372.64 88.59C1369.06 83.3036 1364.36 80.6603 1358.53 80.6603ZM1358.53 74.6447C1368.05 74.6447 1375.87 77.9146 1381.97 84.4543C1388.08 90.994 1391.13 99.3908 1391.13 109.645C1391.13 119.899 1388.07 128.295 1381.94 134.835C1375.81 141.375 1368 144.645 1358.53 144.645C1349.05 144.645 1341.26 141.386 1335.18 134.869C1329.1 128.352 1326.05 119.944 1326.05 109.645C1326.05 99.3452 1329.07 90.937 1335.11 84.4201C1341.15 77.9032 1348.96 74.6447 1358.53 74.6447Z"/>
<path d="M1408.63 84.4885L1399.81 84.4885L1399.81 80.1135L1409.04 76.0803L1415.06 63.0236L1420.25 63.0236L1420.25 77.926L1441.58 77.926L1441.58 84.4885L1420.25 84.4885L1420.25 121.403C1420.25 127.464 1421.1 131.531 1422.78 133.605C1424.47 135.678 1427.5 136.715 1431.87 136.715C1433.38 136.715 1434.94 136.624 1436.56 136.442C1438.18 136.259 1439.85 135.963 1441.58 135.553L1441.58 140.748C1438.39 141.751 1435.25 142.514 1432.15 143.038C1429.05 143.562 1426.06 143.824 1423.19 143.824C1417.82 143.824 1414.04 142.81 1411.88 140.782C1409.72 138.754 1408.63 135.052 1408.63 129.674L1408.63 84.4885Z"/>
<path d="M1480.75 80.6603C1474.92 80.6603 1470.24 83.2922 1466.7 88.5558C1463.17 93.8195 1461.41 100.849 1461.41 109.645C1461.41 118.44 1463.18 125.47 1466.74 130.734C1470.29 135.997 1474.96 138.629 1480.75 138.629C1486.63 138.629 1491.35 136.009 1494.9 130.768C1498.46 125.527 1500.23 118.486 1500.23 109.645C1500.23 100.895 1498.45 93.8765 1494.87 88.59C1491.29 83.3036 1486.59 80.6603 1480.75 80.6603ZM1480.75 74.6447C1490.28 74.6447 1498.09 77.9146 1504.2 84.4543C1510.31 90.994 1513.36 99.3908 1513.36 109.645C1513.36 119.899 1510.29 128.295 1504.16 134.835C1498.04 141.375 1490.23 144.645 1480.75 144.645C1471.27 144.645 1463.49 141.386 1457.41 134.869C1451.32 128.352 1448.28 119.944 1448.28 109.645C1448.28 99.3452 1451.3 90.937 1457.34 84.4201C1463.38 77.9032 1471.18 74.6447 1480.75 74.6447Z"/>
<path d="M1578.03 137.535C1574.11 139.814 1570.26 141.523 1566.47 142.662C1562.69 143.802 1558.96 144.371 1555.26 144.371C1545.78 144.371 1538.16 141.193 1532.4 134.835C1526.63 128.478 1523.75 120.081 1523.75 109.645C1523.75 99.2997 1526.81 90.8801 1532.94 84.3859C1539.07 77.8918 1547.06 74.6447 1556.9 74.6447C1563.42 74.6447 1568.55 75.8866 1572.29 78.3703C1576.02 80.854 1577.89 84.1922 1577.89 88.3849C1577.89 90.618 1577.18 92.4182 1575.77 93.7853C1574.36 95.1525 1572.47 95.8361 1570.1 95.8361C1569.05 95.8361 1568 95.6538 1566.95 95.2892C1565.9 94.9247 1564.86 94.4006 1563.81 93.717L1563.81 82.2326C1562.71 81.5946 1561.6 81.1047 1560.46 80.7629C1559.32 80.4211 1558.18 80.2502 1557.04 80.2502C1550.84 80.2502 1545.86 82.8364 1542.1 88.009C1538.34 93.1815 1536.46 100.074 1536.46 108.688C1536.46 117.21 1538.6 123.92 1542.86 128.82C1547.12 133.719 1552.92 136.168 1560.25 136.168C1563.31 136.168 1566.29 135.678 1569.21 134.698C1572.13 133.719 1575.07 132.226 1578.03 130.221L1578.03 137.535Z"/>
<path d="M1618.63 80.6603C1612.8 80.6603 1608.12 83.2922 1604.58 88.5558C1601.05 93.8195 1599.29 100.849 1599.29 109.645C1599.29 118.44 1601.06 125.47 1604.62 130.734C1608.17 135.997 1612.84 138.629 1618.63 138.629C1624.51 138.629 1629.23 136.009 1632.78 130.768C1636.34 125.527 1638.12 118.486 1638.12 109.645C1638.12 100.895 1636.33 93.8765 1632.75 88.59C1629.17 83.3036 1624.47 80.6603 1618.63 80.6603ZM1618.63 74.6447C1628.16 74.6447 1635.97 77.9146 1642.08 84.4543C1648.19 90.994 1651.24 99.3908 1651.24 109.645C1651.24 119.899 1648.18 128.295 1642.05 134.835C1635.92 141.375 1628.11 144.645 1618.63 144.645C1609.15 144.645 1601.37 141.386 1595.29 134.869C1589.2 128.352 1586.16 119.944 1586.16 109.645C1586.16 99.3452 1589.18 90.937 1595.22 84.4201C1601.26 77.9032 1609.06 74.6447 1618.63 74.6447Z"/>
<path d="M1660.33 143.414L1660.33 138.356L1668.6 137.672L1671 135.416L1671 49.7619L1660.2 49.7619L1660.2 45.3869L1677.29 40.3967L1682.62 40.3967L1682.62 135.416L1685.15 137.672L1693.14 138.356L1693.14 143.414L1660.33 143.414Z"/>
</g>
<path d="M40.3296 119.022C41.3322 118.703 42.0499 118.077 42.4829 117.143C42.9158 116.208 42.9956 115.172 42.7221 114.032C41.8563 110.569 41.1955 106.934 40.7397 103.129C40.284 99.3236 40.1473 95.0283 40.3296 90.2432C40.3751 88.9671 40.0789 87.9873 39.4409 87.3037C38.8029 86.6201 37.9826 86.2556 36.98 86.21C35.6583 86.1188 34.6443 86.4151 33.938 87.0987C33.2316 87.7822 32.81 88.6709 32.6733 89.7647C32.3999 93.5928 32.4455 97.7741 32.81 102.309C33.1746 106.843 34.0177 111.48 35.3393 116.22C35.7039 117.405 36.3647 118.248 37.3218 118.749C38.2788 119.25 39.2814 119.341 40.3296 119.022ZM37.3218 78.2803C38.3244 78.6449 39.3725 78.6107 40.4663 78.1778C41.56 77.7448 42.3348 76.8675 42.7905 75.5459C46.4819 65.292 51.6544 56.7585 58.3081 49.9453C64.9617 43.1322 72.4927 38.0166 80.9009 34.5987C89.3091 31.1807 97.9565 29.4717 106.843 29.4717C112.904 29.4717 118.385 30.0755 123.284 31.2832C128.183 32.4909 132.66 34.2569 136.716 36.5811C137.901 37.2647 139.063 37.5723 140.203 37.5039C141.342 37.4356 142.162 36.8317 142.664 35.6924C143.21 34.5075 143.256 33.5163 142.8 32.7188C142.345 31.9212 141.684 31.249 140.818 30.7022C135.623 27.4209 130.291 25.1195 124.822 23.7979C119.353 22.4763 113.36 21.8155 106.843 21.8155C99.1414 21.8155 91.6788 22.8408 84.4555 24.8916C77.2322 26.9424 70.4874 30.0528 64.2212 34.2227C57.9549 38.3926 52.3608 43.5993 47.4389 49.8428C42.5171 56.0863 38.4839 63.4007 35.3393 71.7862C34.7013 73.5179 34.633 74.9421 35.1343 76.0586C35.6356 77.1752 36.3647 77.9157 37.3218 78.2803ZM179.509 103.095C180.603 103.095 181.492 102.696 182.175 101.898C182.859 101.101 183.155 100.11 183.064 98.9248C182.016 89.628 180.295 81.3906 177.903 74.2129C175.51 67.0352 172.411 60.6436 168.606 55.0381C164.801 49.4326 160.277 44.3285 155.037 39.7256C154.034 38.8597 153.009 38.4951 151.96 38.6319C150.912 38.7686 150.092 39.1787 149.499 39.8623C148.861 40.5915 148.554 41.4688 148.577 42.4942C148.599 43.5196 149.112 44.488 150.115 45.3994C156.86 51.6885 162.522 59.1055 167.102 67.6504C171.682 76.1953 174.542 86.6657 175.681 99.0615C175.818 100.201 176.217 101.158 176.877 101.933C177.538 102.707 178.416 103.095 179.509 103.095ZM48.2593 138.847C48.8973 139.758 49.7859 140.294 50.9253 140.453C52.0646 140.613 53.1128 140.282 54.0698 139.462C56.5307 137.411 58.3764 134.791 59.6069 131.601C60.8374 128.411 61.4526 125.084 61.4526 121.62C61.4526 118.476 61.1108 115.684 60.4272 113.246C59.7436 110.808 59.06 108.244 58.3764 105.556C57.6928 102.867 57.351 99.5628 57.351 95.6436C57.351 88.9444 58.6385 82.6439 61.2134 76.7422C63.7882 70.8405 67.3315 65.6224 71.8432 61.0879C76.355 56.5534 81.5731 52.9987 87.4975 50.4238C93.422 47.849 99.7339 46.5615 106.433 46.5615C117.234 46.5615 126.61 49.3073 134.563 54.7988C142.515 60.2904 148.679 67.9466 153.054 77.7676C157.429 87.5886 159.639 99.016 159.685 112.05C159.685 119.661 159.161 126.166 158.113 131.566C157.065 136.967 155.902 141.216 154.626 144.315C154.171 145.409 154.125 146.457 154.49 147.46C154.854 148.463 155.47 149.192 156.335 149.647C157.292 150.058 158.329 150.08 159.446 149.716C160.562 149.351 161.326 148.622 161.736 147.528C163.057 143.883 164.322 139.097 165.53 133.173C166.737 127.248 167.341 120.185 167.341 111.981C167.341 101.09 165.906 91.1774 163.035 82.2451C160.164 73.3128 156.062 65.611 150.73 59.1397C145.398 52.6683 138.995 47.6781 131.521 44.169C124.047 40.6599 115.684 38.9053 106.433 38.9053C98.6857 38.9053 91.3826 40.3978 84.5239 43.3828C77.6652 46.3679 71.6268 50.4694 66.4087 55.6875C61.1906 60.9056 57.1004 66.9326 54.1382 73.7686C51.1759 80.6045 49.6948 87.8962 49.6948 95.6436C49.6948 99.3806 50.048 102.753 50.7544 105.761C51.4608 108.769 52.1671 111.56 52.8735 114.135C53.5799 116.71 53.9559 119.182 54.0014 121.552C54.0014 123.876 53.5799 126.086 52.7368 128.183C51.8937 130.279 50.6746 132.034 49.0796 133.446C48.2593 134.13 47.7807 134.996 47.644 136.044C47.5073 137.092 47.7124 138.026 48.2593 138.847ZM64.3921 151.562C66.0783 150.696 67.8784 149.249 69.7925 147.221C71.7065 145.193 73.4383 142.914 74.9878 140.385C76.5372 137.855 77.631 135.406 78.269 133.036C78.5425 132.079 78.4741 131.111 78.0639 130.131C77.6538 129.151 76.9018 128.479 75.8081 128.114C74.851 127.795 73.9168 127.886 73.0053 128.388C72.0939 128.889 71.4559 129.687 71.0913 130.78C70.1798 133.788 68.8924 136.431 67.229 138.71C65.5656 140.989 63.4806 142.994 60.9741 144.726C59.7436 145.591 59.0031 146.514 58.7524 147.494C58.5018 148.474 58.5587 149.351 58.9233 150.126C59.3335 150.992 60.0399 151.607 61.0425 151.972C62.0451 152.336 63.1616 152.2 64.3921 151.562ZM79.021 114.511C78.1551 112.187 77.1867 109.521 76.1157 106.513C75.0447 103.505 74.5093 100.019 74.5093 96.0537C74.5093 89.9925 75.9448 84.5238 78.8159 79.6475C81.687 74.7712 85.5607 70.8975 90.437 68.0264C95.3133 65.1553 100.782 63.7197 106.843 63.7197C109.167 63.7197 111.082 63.8223 112.585 64.0274C114.089 64.2324 115.536 64.6084 116.926 65.1553C118.316 65.7022 120.037 66.4541 122.087 67.4112C123.136 67.9125 124.104 68.0378 124.993 67.7871C125.881 67.5365 126.508 67.0238 126.873 66.249C127.419 65.292 127.533 64.2894 127.214 63.2412C126.895 62.1931 126.166 61.3272 125.027 60.6436C122.748 59.322 119.991 58.2168 116.755 57.3281C113.52 56.4395 110.216 55.9951 106.843 55.9951C101.238 55.9951 96.0083 57.0205 91.1548 59.0713C86.3012 61.1221 82.0516 63.9704 78.4057 67.6162C74.7599 71.2621 71.9116 75.5117 69.8608 80.3653C67.81 85.2188 66.7846 90.4483 66.7846 96.0537C66.7846 100.383 67.2746 104.302 68.2544 107.812C69.2342 111.321 70.3165 114.534 71.5014 117.45C72.0027 118.59 72.7319 119.387 73.6889 119.843C74.646 120.299 75.7397 120.276 76.9702 119.774C77.9728 119.364 78.6564 118.658 79.021 117.655C79.3856 116.653 79.3856 115.605 79.021 114.511ZM132.82 76.5713C136.101 81.402 138.573 87.11 140.237 93.6953C141.9 100.281 142.732 107.606 142.732 115.673C142.732 124.286 141.627 132.41 139.416 140.043C137.206 147.676 134.233 153.817 130.496 158.466C129.903 159.286 129.584 160.22 129.539 161.269C129.493 162.317 129.858 163.205 130.632 163.935C131.453 164.709 132.455 165.063 133.64 164.994C134.825 164.926 135.759 164.436 136.443 163.524C140.59 157.873 143.928 150.81 146.457 142.333C148.987 133.856 150.251 124.879 150.251 115.399C150.251 108.518 149.796 102.468 148.884 97.25C147.973 92.0319 146.708 87.4291 145.09 83.4414C143.472 79.4538 141.638 75.7966 139.587 72.4697C138.858 71.376 137.958 70.6696 136.887 70.3506C135.816 70.0316 134.802 70.1227 133.845 70.624C132.843 71.1709 132.227 72.0026 131.999 73.1192C131.772 74.2357 132.045 75.3864 132.82 76.5713ZM78.7475 160.585C84.353 156.073 88.6483 150.377 91.6333 143.495C94.6183 136.614 96.088 129.208 96.0425 121.278C95.9969 117.268 95.6095 113.713 94.8803 110.614C94.1512 107.515 93.4334 104.724 92.727 102.24C92.0206 99.7565 91.6675 97.4209 91.6675 95.2334C91.6675 90.904 93.046 87.4291 95.8032 84.8086C98.5604 82.1882 102.172 80.878 106.638 80.878C111.195 80.878 114.796 82.4274 117.439 85.5264C120.082 88.6253 121.996 92.7611 123.181 97.9336C124.366 103.106 125.027 108.769 125.164 114.921C125.391 122.03 124.765 128.695 123.284 134.916C121.803 141.137 119.718 146.662 117.029 151.493C114.34 156.324 111.309 160.22 107.937 163.183C107.117 163.866 106.627 164.687 106.467 165.644C106.308 166.601 106.501 167.512 107.048 168.378C107.686 169.289 108.575 169.813 109.714 169.95C110.854 170.087 111.879 169.745 112.791 168.925C116.345 165.689 119.615 161.291 122.6 155.731C125.585 150.172 127.966 143.848 129.744 136.762C131.521 129.675 132.387 122.213 132.341 114.374C132.341 106.718 131.521 99.7793 129.88 93.5586C128.24 87.3379 125.551 82.3932 121.814 78.7246C118.077 75.056 113.018 73.2217 106.638 73.2217C102.4 73.2217 98.5831 74.1104 95.188 75.8877C91.7928 77.6651 89.104 80.1488 87.1216 83.3389C85.1391 86.529 84.1479 90.266 84.1479 94.5498C84.1479 97.1475 84.4897 99.9046 85.1733 102.821C85.8569 105.738 86.5405 108.757 87.2241 111.879C87.9077 115.001 88.2723 118.134 88.3178 121.278C88.3634 128.069 87.1557 134.358 84.6948 140.146C82.2339 145.933 78.6564 150.741 73.9624 154.569C73.0509 155.344 72.5154 156.221 72.3559 157.201C72.1964 158.181 72.4129 159.104 73.0053 159.97C73.6889 160.972 74.589 161.519 75.7055 161.61C76.8221 161.702 77.8361 161.36 78.7475 160.585ZM94.7436 166.054C97.4324 164.094 100.235 161.098 103.152 157.064C106.068 153.031 108.165 148.827 109.441 144.452C109.669 143.677 109.657 142.777 109.407 141.752C109.156 140.727 108.484 140.032 107.39 139.667C106.251 139.257 105.225 139.28 104.314 139.735C103.402 140.191 102.787 140.875 102.468 141.786C100.736 146.343 98.811 150.058 96.6919 152.929C94.5727 155.8 92.3738 158.124 90.0952 159.901C89.2293 160.585 88.6938 161.439 88.4887 162.465C88.2837 163.49 88.4774 164.436 89.0698 165.302C89.6167 166.259 90.4598 166.806 91.5991 166.942C92.7384 167.079 93.7866 166.783 94.7436 166.054ZM113.337 128.524C113.975 125.425 114.317 122.11 114.363 118.578C114.408 115.046 114.158 111.457 113.611 107.812C113.064 104.166 112.244 100.634 111.15 97.2158C110.694 95.9398 110.011 95.0511 109.099 94.5498C108.188 94.0485 107.208 93.9574 106.16 94.2764C105.157 94.5954 104.405 95.1992 103.904 96.0879C103.402 96.9766 103.334 98.0134 103.699 99.1983C104.747 102.48 105.51 105.749 105.989 109.008C106.467 112.266 106.695 115.445 106.672 118.544C106.65 121.643 106.365 124.628 105.818 127.499C105.59 128.502 105.704 129.436 106.16 130.302C106.615 131.168 107.436 131.692 108.621 131.874C109.714 132.102 110.717 131.908 111.628 131.293C112.54 130.678 113.11 129.755 113.337 128.524Z" fill="#000000" opacity="1" stroke="none"/>
</g>
</svg>
