<?xml version="1.0" encoding="UTF-8" standalone="no"?>
<!DOCTYPE svg PUBLIC "-//W3C//DTD SVG 1.1//EN" "http://www.w3.org/Graphics/SVG/1.1/DTD/svg11.dtd">
<!-- Created with Linearity Curve (http://linearity.io/curve) -->
<svg height="100%" stroke-miterlimit="10" style="fill-rule:nonzero;clip-rule:evenodd;stroke-linecap:round;stroke-linejoin:round;" version="1.1" viewBox="0 0 905.918 138.126" width="100%" xml:space="preserve" xmlns="http://www.w3.org/2000/svg" xmlns:xlink="http://www.w3.org/1999/xlink">
<defs/>
<g id="Layer-1">
<g opacity="1">
<path d="M67.3732 34.6376C61.7066 39.1811 57.9708 46.9943 57.9708 55.8691L57.9708 106.825L28.5882 106.825C26.2795 106.825 24.3907 104.914 24.3907 102.578L24.3907 60.1154C24.3907 46.0601 33.7931 34.6376 45.3782 34.6376L67.3732 34.6376ZM83.1558 34.6376C73.883 34.6376 66.3658 46.0444 66.3658 60.1154C66.3658 74.1864 73.883 85.5931 83.1558 85.5931C92.4287 85.5931 99.9459 74.1864 99.9459 60.1154C99.9459 46.0444 92.4287 34.6376 83.1558 34.6376Z" fill="#665d5a" fill-rule="nonzero" opacity="1" stroke="none"/>
<g opacity="1">
<g opacity="1">
<path d="M426.424 68.9368L426.424 81.3988C422.766 83.7548 418.798 84.8708 413.9 84.8708C409.002 84.8708 405.158 83.3828 402.368 80.4068C398.958 76.7488 397.16 71.2928 397.16 64.6588C397.16 52.1968 403.422 44.5708 413.652 44.5708C420.286 44.5708 424.44 47.4228 426.672 53.4988L431.508 51.8868C430.144 48.5388 429.028 46.7408 426.982 44.8188C423.696 41.7808 419.232 40.2308 413.714 40.2308C400.508 40.2308 392.076 49.7168 392.076 64.6588C392.076 73.0288 394.866 80.1588 399.702 84.4368C403.298 87.5368 407.948 89.0248 413.838 89.0248C417 89.0248 420.472 88.5908 423.076 87.8468C425.928 87.0408 427.788 86.1728 431.508 84.0028C431.136 81.5228 431.074 80.0348 431.074 77.1208L431.074 71.4168C431.074 68.5648 431.136 67.0148 431.508 64.4108C429.586 64.5968 427.85 64.6588 424.936 64.6588L423.138 64.6588C419.79 64.6588 418.24 64.5968 416.38 64.2868L416.38 69.3088C418.116 68.9988 419.542 68.9368 422.766 68.9368L426.424 68.9368Z" fill="#1f1f21" fill-rule="nonzero" opacity="1" stroke="none"/>
<path d="M461.454 54.9248C458.85 54.4908 457.796 54.3668 455.936 54.3668C452.96 54.3668 450.852 54.9868 448.496 56.5368C447.194 57.4048 446.264 58.3968 445.086 60.3188C445.148 59.8848 445.148 58.9548 445.148 58.4588L445.148 54.9248L440.002 54.9248C440.312 57.1568 440.436 58.8308 440.436 61.9308L440.436 81.3368C440.436 83.8788 440.312 85.4908 440.002 88.3428L445.582 88.3428C445.272 85.9248 445.148 84.1888 445.148 81.3988L445.148 68.7508C445.396 65.9608 445.954 64.4728 447.442 62.5508C449.302 60.0708 451.906 58.7688 455.068 58.7688C456.618 58.7688 457.734 58.9548 460.09 59.6988L461.454 54.9248Z" fill="#1f1f21" fill-rule="nonzero" opacity="1" stroke="none"/>
<path d="M488.734 88.3428L493.756 88.3428C493.384 85.8628 493.26 84.3128 493.26 81.5228L493.26 64.1008C493.26 57.4048 489.044 53.9328 480.86 53.9328C476.21 53.9328 472.49 55.1108 469.948 57.4668C468.398 58.8308 467.592 60.1328 466.476 62.9848L471.312 64.0388C471.932 62.1788 472.428 61.3108 473.234 60.4428C474.97 58.6448 477.512 57.7768 480.922 57.7768C486.068 57.7768 488.734 59.9468 488.734 64.1628L488.734 67.7588C481.108 67.9448 478.132 68.3168 474.474 69.3708C468.708 70.9828 465.608 74.5788 465.608 79.5388C465.608 85.4288 469.762 88.9628 476.582 88.9628C478.69 88.9628 480.922 88.5288 483.03 87.7228C485.138 86.9168 486.316 86.1108 488.734 83.9408L488.734 88.3428ZM488.734 75.4468C488.734 77.9268 488.238 79.2288 486.812 80.7788C484.394 83.4448 480.488 85.1808 476.892 85.1808C472.862 85.1808 470.32 83.0108 470.32 79.6008C470.32 76.6248 471.87 74.5168 475.032 73.2148C477.822 72.0368 481.356 71.6028 488.734 71.4168L488.734 75.4468Z" fill="#1f1f21" fill-rule="nonzero" opacity="1" stroke="none"/>
<path d="M507.768 101.363C507.458 99.0688 507.334 97.2708 507.334 94.3568L507.334 86.6688C507.334 84.9948 507.272 84.0648 507.086 82.3288C510 86.6068 514.402 88.9008 519.858 88.9008C529.158 88.9008 535.11 82.1428 535.11 71.6028C535.11 60.8148 529.282 54.3048 519.734 54.3048C514.216 54.3048 509.876 56.5988 507.086 61.0008C507.21 59.9468 507.272 59.2648 507.272 58.4588L507.272 54.9248L502.312 54.9248C502.622 57.2808 502.746 59.0788 502.746 62.0548L502.746 94.4188C502.746 96.9608 502.622 98.9448 502.312 101.363L507.768 101.363ZM519.424 84.8708C516.2 84.8708 513.1 83.6928 510.93 81.5848C508.698 79.4148 507.396 75.6948 507.396 71.6648C507.396 63.6668 512.232 58.3348 519.362 58.3348C526.306 58.3348 530.274 63.1708 530.274 71.6028C530.274 79.8488 526.182 84.8708 519.424 84.8708Z" fill="#1f1f21" fill-rule="nonzero" opacity="1" stroke="none"/>
<path d="M547.944 88.3428C547.634 85.9248 547.51 84.0648 547.51 81.3368L547.51 69.4328C548.068 66.8288 548.874 65.1548 550.61 62.9228C553.028 59.8848 555.88 58.3968 559.352 58.3968C564.188 58.3968 566.854 61.3108 566.854 66.7048L566.854 81.3368C566.854 84.4368 566.73 86.2968 566.42 88.3428L572 88.3428C571.69 86.0488 571.566 84.2508 571.566 81.3988L571.566 65.8368C571.566 58.5828 567.226 54.3048 559.972 54.3048C556.19 54.3048 553.338 55.3588 550.672 57.6528C549.184 58.8928 548.502 59.8228 547.262 61.8688C547.448 60.2568 547.448 59.7608 547.448 58.7688L547.448 48.2908C547.448 45.1288 547.572 43.5168 547.944 41.2228L542.426 41.2228C542.736 43.5168 542.86 45.1288 542.86 48.2288L542.86 81.3368C542.86 84.4368 542.736 86.1108 542.426 88.3428L547.944 88.3428Z" fill="#1f1f21" fill-rule="nonzero" opacity="1" stroke="none"/>
</g>
<g opacity="1">
<path d="M172.008 53.0648C170.52 49.2208 169.342 47.3608 167.172 45.2528C163.824 41.9048 159.112 40.2308 153.284 40.2308C147.394 40.2308 142.682 42.0288 139.086 45.5008C134.498 50.0268 132.018 56.7848 132.018 64.7828C132.018 72.5328 134.374 79.2908 138.714 83.6308C142.248 87.2268 147.27 89.0868 153.222 89.0868C160.166 89.0868 165.808 86.5448 169.28 81.8948C170.768 79.9108 171.574 78.1748 172.628 74.5168L167.482 73.2768C166.924 76.1288 166.304 77.6788 165.002 79.4768C162.46 82.8248 158.306 84.6848 153.408 84.6848C143.426 84.6848 137.04 76.8728 137.04 64.5968C137.04 52.2588 143.364 44.5708 153.408 44.5708C157.934 44.5708 161.654 46.1208 164.134 49.0348C165.436 50.5228 166.118 51.8248 167.048 54.4908L172.008 53.0648Z" fill="#1f1f21" fill-rule="nonzero" opacity="1" stroke="none"/>
<path d="M195.134 89.0248C205.116 89.0248 211.564 82.0808 211.564 71.4788C211.564 60.8148 205.178 53.9948 195.072 53.9948C184.966 53.9948 178.518 60.8148 178.518 71.5408C178.518 82.2668 184.966 89.0248 195.134 89.0248ZM195.196 57.9008C202.326 57.9008 206.79 63.1088 206.79 71.4788C206.79 79.8488 202.326 84.9948 195.072 84.9948C187.818 84.9948 183.292 79.8488 183.292 71.4168C183.292 63.0468 187.818 57.9008 195.196 57.9008Z" fill="#1f1f21" fill-rule="nonzero" opacity="1" stroke="none"/>
<path d="M224.398 88.2188C224.088 85.8008 223.964 83.9408 223.964 81.2128L223.964 69.2468C224.46 66.7668 225.204 65.2168 226.816 63.1088C229.42 59.7608 232.21 58.2108 235.682 58.2108C240.58 58.2108 243.246 61.1868 243.246 66.7668L243.246 81.2128C243.246 83.9408 243.122 85.8008 242.812 88.2188L248.392 88.2188C248.082 86.1728 247.958 84.4368 247.958 81.2748L247.958 65.9608C247.958 62.9228 247.4 60.6288 246.222 58.8308C244.238 55.7928 240.766 54.1808 236.302 54.1808C230.722 54.1808 226.692 56.5988 223.778 61.6828C223.964 60.2568 223.964 59.7608 223.964 59.0168L223.964 54.8008L218.818 54.8008C219.19 57.2808 219.314 59.0168 219.314 61.8068L219.314 81.2128C219.314 84.1888 219.19 85.8628 218.818 88.2188L224.398 88.2188Z" fill="#1f1f21" fill-rule="nonzero" opacity="1" stroke="none"/>
<path d="M261.04 45.5628C261.35 47.6088 261.474 49.9648 261.474 52.4448L261.474 54.8008L258.994 54.8008C256.39 54.8008 255.15 54.7388 253.414 54.4288L253.414 59.1408C255.46 58.8928 256.886 58.7688 258.994 58.7688L261.474 58.7688L261.474 80.9648C261.474 83.8788 261.97 85.6768 263.21 86.9168C264.45 88.1568 266.558 88.8388 269.286 88.8388C271.828 88.8388 273.75 88.4668 276.292 87.4128L274.928 83.0728C272.882 84.3128 271.642 84.6848 270.03 84.6848C268.728 84.6848 267.674 84.3128 266.992 83.6308C266.434 83.0728 266.186 82.1428 266.186 80.3448L266.186 58.7688L269.162 58.7688C271.952 58.7688 273.502 58.8308 275.486 59.1408L275.486 54.4288C273.316 54.7388 272.014 54.8008 269.162 54.8008L266.186 54.8008L266.186 52.4448C266.186 49.7788 266.31 47.5468 266.62 45.5628L261.04 45.5628Z" fill="#1f1f21" fill-rule="nonzero" opacity="1" stroke="none"/>
<path d="M310.702 72.2228C310.578 70.5488 310.33 68.1308 310.268 67.4488C309.028 59.1408 303.262 53.9948 295.264 53.9948C285.964 53.9948 279.888 60.9388 279.888 71.5408C279.888 82.2668 286.026 89.0868 295.76 89.0868C300.286 89.0868 304.068 87.5988 306.982 84.7468C308.408 83.3208 309.214 82.2048 310.392 79.6008L306.052 77.8648C304.316 82.6388 300.844 85.1188 295.822 85.1188C292.102 85.1188 289.064 83.6308 287.08 80.9028C285.406 78.6708 284.786 76.3768 284.6 72.2228L310.702 72.2228ZM284.786 68.3168C285.158 65.9608 285.468 64.8448 286.336 63.2948C288.196 59.8228 291.358 57.9008 295.14 57.9008C298.116 57.9008 300.534 58.8308 302.456 60.6908C304.44 62.6128 305.37 64.8448 305.742 68.3168L284.786 68.3168Z" fill="#1f1f21" fill-rule="nonzero" opacity="1" stroke="none"/>
<path d="M345.608 88.2188C341.764 83.1348 341.764 83.1348 341.144 82.3288L332.96 70.9208L340.772 59.9468C341.826 58.4588 343.128 56.7848 344.554 54.8008L338.602 54.8008C338.044 56.0408 337.238 57.4048 336.184 58.9548L330.17 67.6968L324.094 58.9548C322.916 57.2808 322.296 56.2268 321.676 54.8008L315.6 54.8008C318.452 58.5828 318.948 59.2028 319.32 59.7608L327.318 70.9208L318.7 82.8248C317.336 84.8088 315.662 86.9788 314.67 88.2188L320.808 88.2188C321.738 86.4828 322.234 85.5528 323.226 84.1888L330.108 74.1448L336.68 83.6308C337.982 85.6148 338.602 86.6068 339.47 88.2188L345.608 88.2188Z" fill="#1f1f21" fill-rule="nonzero" opacity="1" stroke="none"/>
<path d="M355.032 45.5628C355.342 47.6088 355.466 49.9648 355.466 52.4448L355.466 54.8008L352.986 54.8008C350.382 54.8008 349.142 54.7388 347.406 54.4288L347.406 59.1408C349.452 58.8928 350.878 58.7688 352.986 58.7688L355.466 58.7688L355.466 80.9648C355.466 83.8788 355.962 85.6768 357.202 86.9168C358.442 88.1568 360.55 88.8388 363.278 88.8388C365.82 88.8388 367.742 88.4668 370.284 87.4128L368.92 83.0728C366.874 84.3128 365.634 84.6848 364.022 84.6848C362.72 84.6848 361.666 84.3128 360.984 83.6308C360.426 83.0728 360.178 82.1428 360.178 80.3448L360.178 58.7688L363.154 58.7688C365.944 58.7688 367.494 58.8308 369.478 59.1408L369.478 54.4288C367.308 54.7388 366.006 54.8008 363.154 54.8008L360.178 54.8008L360.178 52.4448C360.178 49.7788 360.302 47.5468 360.612 45.5628L355.032 45.5628Z" fill="#1f1f21" fill-rule="nonzero" opacity="1" stroke="none"/>
</g>
<g opacity="1">
<path d="M603.04 88.5368C602.668 86.4288 602.544 84.5068 602.544 81.5308L602.544 69.3168L616.37 69.3168C626.042 69.3168 631.622 64.0468 631.622 54.9328C631.622 46.3148 626.228 41.4168 616.68 41.4168L604.032 41.4168C601.18 41.4168 599.444 41.3548 597.212 41.2308C597.584 43.8348 597.708 45.7568 597.708 48.2988L597.708 81.5928C597.708 84.5068 597.584 86.3048 597.212 88.5368L603.04 88.5368ZM602.544 65.0388L602.544 45.6948L616.37 45.6948C623.066 45.6948 626.662 48.9808 626.662 55.1808C626.662 61.5048 622.942 65.0388 616.37 65.0388L602.544 65.0388Z" fill="#1f1f21" fill-rule="nonzero" opacity="1" stroke="none"/>
<path d="M659.336 55.1188C656.732 54.6848 655.678 54.5608 653.818 54.5608C650.842 54.5608 648.734 55.1808 646.378 56.7308C645.076 57.5988 644.146 58.5908 642.968 60.5128C643.03 60.0788 643.03 59.1488 643.03 58.6528L643.03 55.1188L637.884 55.1188C638.194 57.3508 638.318 59.0248 638.318 62.1248L638.318 81.5308C638.318 84.0728 638.194 85.6848 637.884 88.5368L643.464 88.5368C643.154 86.1188 643.03 84.3828 643.03 81.5928L643.03 68.9448C643.278 66.1548 643.836 64.6668 645.324 62.7448C647.184 60.2648 649.788 58.9628 652.95 58.9628C654.5 58.9628 655.616 59.1488 657.972 59.8928L659.336 55.1188Z" fill="#1f1f21" fill-rule="nonzero" opacity="1" stroke="none"/>
<path d="M679.61 89.3428C689.592 89.3428 696.04 82.3988 696.04 71.7968C696.04 61.1328 689.654 54.3128 679.548 54.3128C669.442 54.3128 662.994 61.1328 662.994 71.8588C662.994 82.5848 669.442 89.3428 679.61 89.3428ZM679.672 58.2188C686.802 58.2188 691.266 63.4268 691.266 71.7968C691.266 80.1668 686.802 85.3128 679.548 85.3128C672.294 85.3128 667.768 80.1668 667.768 71.7348C667.768 63.3648 672.294 58.2188 679.672 58.2188Z" fill="#1f1f21" fill-rule="nonzero" opacity="1" stroke="none"/>
<path d="M707.2 45.8808C707.51 47.9268 707.634 50.2828 707.634 52.7628L707.634 55.1188L705.154 55.1188C702.55 55.1188 701.31 55.0568 699.574 54.7468L699.574 59.4588C701.62 59.2108 703.046 59.0868 705.154 59.0868L707.634 59.0868L707.634 81.2828C707.634 84.1968 708.13 85.9948 709.37 87.2348C710.61 88.4748 712.718 89.1568 715.446 89.1568C717.988 89.1568 719.91 88.7848 722.452 87.7308L721.088 83.3908C719.042 84.6308 717.802 85.0028 716.19 85.0028C714.888 85.0028 713.834 84.6308 713.152 83.9488C712.594 83.3908 712.346 82.4608 712.346 80.6628L712.346 59.0868L715.322 59.0868C718.112 59.0868 719.662 59.1488 721.646 59.4588L721.646 54.7468C719.476 55.0568 718.174 55.1188 715.322 55.1188L712.346 55.1188L712.346 52.7628C712.346 50.0968 712.47 47.8648 712.78 45.8808L707.2 45.8808Z" fill="#1f1f21" fill-rule="nonzero" opacity="1" stroke="none"/>
<path d="M742.664 89.3428C752.646 89.3428 759.094 82.3988 759.094 71.7968C759.094 61.1328 752.708 54.3128 742.602 54.3128C732.496 54.3128 726.048 61.1328 726.048 71.8588C726.048 82.5848 732.496 89.3428 742.664 89.3428ZM742.726 58.2188C749.856 58.2188 754.32 63.4268 754.32 71.7968C754.32 80.1668 749.856 85.3128 742.602 85.3128C735.348 85.3128 730.822 80.1668 730.822 71.7348C730.822 63.3648 735.348 58.2188 742.726 58.2188Z" fill="#1f1f21" fill-rule="nonzero" opacity="1" stroke="none"/>
<path d="M794.62 63.9228C793.876 62.1248 793.318 61.1328 792.45 59.9548C789.784 56.2348 785.63 54.2508 780.484 54.2508C770.998 54.2508 764.798 61.2568 764.798 71.9828C764.798 82.5848 771.06 89.3428 780.794 89.3428C785.816 89.3428 789.784 87.5448 792.512 84.1348C793.566 82.7708 794.186 81.5928 795.054 79.3608L790.404 78.1208C789.97 79.6088 789.66 80.3528 789.04 81.2828C787.428 83.8248 784.514 85.2508 780.98 85.2508C774.036 85.2508 769.572 80.0428 769.572 71.8588C769.572 63.5508 773.912 58.2188 780.732 58.2188C785.32 58.2188 788.296 60.5128 790.094 65.3488L794.62 63.9228Z" fill="#1f1f21" fill-rule="nonzero" opacity="1" stroke="none"/>
<path d="M817.25 89.3428C827.232 89.3428 833.68 82.3988 833.68 71.7968C833.68 61.1328 827.294 54.3128 817.188 54.3128C807.082 54.3128 800.634 61.1328 800.634 71.8588C800.634 82.5848 807.082 89.3428 817.25 89.3428ZM817.312 58.2188C824.442 58.2188 828.906 63.4268 828.906 71.7968C828.906 80.1668 824.442 85.3128 817.188 85.3128C809.934 85.3128 805.408 80.1668 805.408 71.7348C805.408 63.3648 809.934 58.2188 817.312 58.2188Z" fill="#1f1f21" fill-rule="nonzero" opacity="1" stroke="none"/>
<path d="M840.934 41.4168C841.244 43.6488 841.368 45.3228 841.368 48.3608L841.368 81.5928C841.368 84.3828 841.244 86.3048 840.934 88.5368L846.514 88.5368C846.204 86.0568 846.08 84.3828 846.08 81.5928L846.08 48.4228C846.08 45.3228 846.204 43.6488 846.514 41.4168L840.934 41.4168Z" fill="#1f1f21" fill-rule="nonzero" opacity="1" stroke="none"/>
</g>
</g>
</g>
</g>
</svg>
