<?xml version="1.0" encoding="UTF-8" standalone="no"?>
<!DOCTYPE svg PUBLIC "-//W3C//DTD SVG 1.1//EN" "http://www.w3.org/Graphics/SVG/1.1/DTD/svg11.dtd">
<!-- Created with Linearity Curve (http://linearity.io/curve) -->
<svg height="100%" stroke-miterlimit="10" style="fill-rule:nonzero;clip-rule:evenodd;stroke-linecap:round;stroke-linejoin:round;" version="1.1" viewBox="0 0 1024 1024" width="100%" xml:space="preserve" xmlns="http://www.w3.org/2000/svg" xmlns:xlink="http://www.w3.org/1999/xlink">
<defs/>
<path d="M0 0L1024 0L1024 1024L0 1024L0 0Z" fill="#ffffff" fill-rule="nonzero" opacity="1" stroke="none"/>
<clipPath id="ArtboardFrame">
<rect height="1024" width="1024" x="0" y="0"/>
</clipPath>
<g clip-path="url(#ArtboardFrame)" id="Layer-1">
<path d="M22.0697 27.5612L993.995 27.5612L993.995 989.815L22.0697 989.815L22.0697 27.5612Z" fill="#c79475" fill-rule="nonzero" opacity="1" stroke="#1f1f21" stroke-linecap="butt" stroke-linejoin="miter" stroke-width="17"/>
<g opacity="1">
<path d="M1096.75 1091.18C1084.18 1079.52 1075.79 1088.31 1075.79 1088.31C1069.51 1079.14 1079.2 1074.17 1079.2 1074.17C1074.22 1070.73 1069.51 1073.02 1069.51 1073.02C1069.51 1060.8 1077.37 1056.6 1077.37 1056.6C1072.13 1052.78 1065.32 1056.21 1065.32 1056.21C1065.32 1039.4 1082.42 1021.07 1100.94 1021.07C1119.45 1021.07 1136.56 1039.4 1136.56 1056.21C1136.56 1056.21 1129.75 1052.78 1124.51 1056.6C1124.51 1056.6 1132.37 1061.18 1132.37 1073.02C1132.37 1073.02 1127.65 1070.73 1122.68 1074.17C1122.68 1074.17 1132.1 1079.52 1126.08 1088.31C1126.08 1088.31 1117.7 1079.52 1105.13 1091.36" fill="none" opacity="1" stroke="#000000" stroke-linecap="butt" stroke-linejoin="miter" stroke-width="2"/>
<path d="M1100.94 1085.25C1097.47 1085.25 1094.65 1088.67 1094.65 1092.89C1094.65 1097.11 1097.47 1100.53 1100.94 1100.53C1104.41 1100.53 1107.22 1097.11 1107.22 1092.89C1107.22 1088.67 1104.41 1085.25 1100.94 1085.25ZM1105.13 1069.97C1105.13 1069.97 1105.13 1057.74 1115.6 1057.74M1096.75 1069.97C1096.75 1069.97 1096.75 1057.74 1086.27 1057.74M1071.87 1036.35C1071.87 1036.35 1067.41 1027.18 1067.41 1008.84C1067.41 1008.84 1080.98 1006.04 1090.46 1024.21M1130.01 1035.97C1130.01 1035.97 1134.46 1027.18 1134.46 1008.84C1134.46 1008.84 1120.89 1006.04 1111.41 1024.21M1088.63 1086.26C1085.5 1089.88 1062.96 1105.88 1071.6 1137.21M1113.51 1103.59C1123.63 1113.09 1136.56 1100.15 1138.65 1097.3C1138.65 1109.7 1133.94 1130.33 1121.89 1137.21" fill="none" opacity="1" stroke="#000000" stroke-linecap="butt" stroke-linejoin="miter" stroke-width="2"/>
<path d="M1071.6 1137.21C1061.8 1131.53 1056.94 1123.41 1056.94 1112.76C1056.94 1100.72 1066.89 1093.66 1078.41 1099.77" fill="none" opacity="1" stroke="#000000" stroke-linecap="butt" stroke-linejoin="miter" stroke-width="2"/>
<path d="M1079.98 1118.87C1079.98 1112.76 1082.8 1109.7 1086.27 1109.7C1089.74 1109.7 1092.56 1112.76 1092.56 1118.87C1092.56 1121.93 1090.46 1128.04 1086.27 1131.1C1086.27 1131.1 1096.75 1127.66 1096.75 1142.94C1096.75 1142.94 1075.72 1145.87 1071.6 1137.21M1113.51 1086.01C1113.51 1086.01 1112.46 1114.29 1115.6 1131.1C1115.6 1131.1 1123.98 1131.1 1123.98 1143.32L1111.63 1143.32" fill="none" opacity="1" stroke="#000000" stroke-linecap="butt" stroke-linejoin="round" stroke-width="2"/>
<path d="M1091.51 1143.32L1111.41 1143.32C1111.41 1131.1 1104.9 1131.1 1104.9 1131.1C1104.9 1131.1 1103.03 1129.48 1103.03 1115.81" fill="none" opacity="1" stroke="#000000" stroke-linecap="butt" stroke-linejoin="round" stroke-width="2"/>
</g>
<g opacity="1">
<path d="M705.476 1115.48C703.162 1115.48 701.286 1118.22 701.286 1121.59C701.286 1124.97 703.162 1127.71 705.476 1127.71C707.791 1127.71 709.667 1124.97 709.667 1121.59C709.667 1118.22 707.791 1115.48 705.476 1115.48Z" fill="#000000" fill-rule="nonzero" opacity="1" stroke="none"/>
<path d="M692.905 1142.99C692.905 1142.99 693.86 1182.72 715.952 1182.72C733.135 1182.72 742.681 1158.69 736.905 1146.04C731.996 1135.3 726.429 1121.16 726.429 1103.26C726.429 1085.35 707.632 1075.75 692.905 1075.75C680.631 1075.75 675.187 1063.52 653.095 1063.52C631.003 1063.52 594.429 1093.91 594.429 1136.88C594.429 1160.9 600.714 1162.29 600.714 1176.61C600.714 1190.93 586.048 1193.34 586.048 1211.24C586.048 1225.57 597.492 1228.57 607.31 1228.57C617.128 1228.57 634.238 1224.97 634.238 1211.24C634.238 1196.92 625.857 1194.36 625.857 1185.78C625.857 1175.48 641.783 1176.61 649.429 1176.61" fill="none" opacity="1" stroke="#000000" stroke-linecap="round" stroke-linejoin="miter" stroke-width="2"/>
<path d="M651 1170.5C651 1181.24 651 1201.3 651 1204.88C651 1212.04 654.472 1216.34 659.381 1216.34C665.667 1216.34 680.754 1195.13 663.571 1152.16M671.429 1185.78C681.247 1185.78 691.62 1181.52 698.985 1174.36M692.905 1179.66C692.905 1186.83 692.905 1200.01 692.905 1207.17C692.905 1214.33 696.53 1218.11 698.985 1218.11C703.894 1218.11 713.099 1211.25 713.099 1183.79" fill="none" opacity="1" stroke="#000000" stroke-linecap="round" stroke-linejoin="miter" stroke-width="2"/>
<path d="M705.476 1149.1C704.319 1149.1 703.381 1150.47 703.381 1152.16C703.381 1153.85 704.319 1155.21 705.476 1155.21C706.633 1155.21 707.571 1153.85 707.571 1152.16C707.571 1150.47 706.633 1149.1 705.476 1149.1ZM707.571 1161.33C706.414 1161.33 705.476 1162.7 705.476 1164.38C705.476 1166.07 706.414 1167.44 707.571 1167.44C708.729 1167.44 709.667 1166.07 709.667 1164.38C709.667 1162.7 708.729 1161.33 707.571 1161.33ZM713.857 1167.44C712.7 1167.44 711.762 1168.81 711.762 1170.5C711.762 1172.18 712.7 1173.55 713.857 1173.55C715.014 1173.55 715.952 1172.18 715.952 1170.5C715.952 1168.81 715.014 1167.44 713.857 1167.44Z" fill="#000000" fill-rule="nonzero" opacity="1" stroke="none"/>
<path d="M609.766 1120.98C601.175 1155.89 619.584 1179.17 631.858 1179.17" fill="none" opacity="1" stroke="#000000" stroke-dasharray="0.0,4.0,0.0,4.0" stroke-linecap="round" stroke-linejoin="round" stroke-width="2"/>
</g>
<g fill="#1f1f21" opacity="1" stroke="none">
<path d="M189.328 340.986C189.328 348.792 188.093 355.882 185.622 362.255C183.151 368.629 179.607 374.126 174.987 378.745C170.368 383.364 164.836 386.962 158.391 389.541C151.945 392.119 144.748 393.408 136.799 393.408C128.993 393.408 121.867 392.119 115.422 389.541C108.977 386.962 103.444 383.364 98.8253 378.745C94.2062 374.126 90.6612 368.629 88.1905 362.255C85.7198 355.882 84.4845 348.792 84.4845 340.986C84.4845 333.395 85.7198 326.359 88.1905 319.878C90.6612 313.396 94.2062 307.81 98.8253 303.12C103.444 298.429 108.977 294.812 115.422 292.27C121.867 289.728 128.993 288.457 136.799 288.457C144.748 288.457 151.945 289.728 158.391 292.27C164.836 294.812 170.368 298.429 174.987 303.12C179.607 307.81 183.151 313.396 185.622 319.878C188.093 326.359 189.328 333.395 189.328 340.986ZM167.199 340.986C167.199 336.474 166.501 332.195 165.105 328.149C163.708 324.103 161.685 320.647 159.035 317.783C156.386 314.918 153.181 312.644 149.421 310.962C145.661 309.279 141.454 308.437 136.799 308.437C132.072 308.437 127.847 309.279 124.123 310.962C120.399 312.644 117.248 314.918 114.67 317.783C112.092 320.647 110.105 324.103 108.708 328.149C107.312 332.195 106.613 336.474 106.613 340.986C106.613 345.712 107.312 350.009 108.708 353.877C110.105 357.744 112.092 361.145 114.67 364.082C117.248 367.018 120.399 369.292 124.123 370.903C127.847 372.514 132.072 373.32 136.799 373.32C141.454 373.32 145.661 372.514 149.421 370.903C153.181 369.292 156.386 367.018 159.035 364.082C161.685 361.145 163.708 357.744 165.105 353.877C166.501 350.009 167.199 345.712 167.199 340.986Z"/>
<path d="M205.994 290.82L228.231 290.82L228.231 299.843C232.456 296.048 236.735 293.201 241.067 291.303C245.4 289.406 250.359 288.457 255.945 288.457C262.391 288.457 268.371 289.764 273.885 292.378C279.399 294.991 284.126 298.608 288.065 303.227C292.003 307.846 295.119 313.396 297.41 319.878C299.702 326.359 300.848 333.395 300.848 340.986C300.848 348.649 299.702 355.703 297.41 362.148C295.119 368.593 292.003 374.126 288.065 378.745C284.126 383.364 279.399 386.962 273.885 389.541C268.371 392.119 262.391 393.408 255.945 393.408C250.359 393.408 245.4 392.405 241.067 390.4C236.735 388.395 232.456 385.494 228.231 381.699L228.231 431.005L205.994 431.005L205.994 290.82ZM228.231 364.082C230.88 367.018 234.264 369.292 238.382 370.903C242.5 372.514 246.456 373.32 250.252 373.32C258.631 373.32 265.452 370.348 270.716 364.404C275.98 358.46 278.611 350.654 278.611 340.986C278.611 331.318 275.98 323.476 270.716 317.461C265.452 311.445 258.631 308.437 250.252 308.437C246.456 308.437 242.5 309.207 238.382 310.747C234.264 312.286 230.88 314.524 228.231 317.461L228.231 364.082Z"/>
<path d="M335.238 349.365C336.313 356.24 339.589 361.951 345.067 366.499C350.546 371.046 357.904 373.32 367.143 373.32C374.376 373.32 380.66 372.192 385.995 369.936C391.331 367.68 395.932 364.69 399.799 360.966L411.186 376.65C404.74 383.095 397.919 387.5 390.722 389.863C383.525 392.226 375.665 393.408 367.143 393.408C359.408 393.408 352.211 392.119 345.551 389.541C338.891 386.962 333.126 383.364 328.256 378.745C323.386 374.126 319.573 368.629 316.816 362.255C314.058 355.882 312.68 348.792 312.68 340.986C312.68 333.395 313.951 326.394 316.493 319.985C319.036 313.575 322.616 308.025 327.235 303.335C331.855 298.644 337.387 294.991 343.832 292.378C350.277 289.764 357.403 288.457 365.209 288.457C373.302 288.457 380.642 289.835 387.231 292.592C393.819 295.35 399.459 299.342 404.15 304.57C408.84 309.798 412.511 316.189 415.16 323.745C417.81 331.3 419.135 339.84 419.135 349.365L335.238 349.365ZM393.998 329.814C392.852 323.369 389.522 318.195 384.008 314.292C378.494 310.389 372.227 308.437 365.209 308.437C358.191 308.437 351.889 310.389 346.303 314.292C340.717 318.195 337.351 323.369 336.205 329.814L393.998 329.814Z"/>
<path d="M523.779 390.937L501.543 390.937L501.543 329.17C501.543 321.364 500.075 315.957 497.139 312.949C494.203 309.941 489.942 308.437 484.356 308.437C476.12 308.437 469.406 311.767 464.214 318.427C459.022 325.087 456.426 334.29 456.426 346.035L456.426 390.937L434.19 390.937L434.19 290.82L456.426 290.82L456.426 315.957C458.646 307.291 462.764 300.542 468.779 295.708C474.795 290.874 482.207 288.457 491.016 288.457C501.257 288.457 509.277 291.787 515.078 298.447C520.879 305.107 523.779 315.348 523.779 329.17L523.779 390.937Z"/>
<path d="M182.99 546.65C176.545 553.095 169.76 557.5 162.634 559.863C155.508 562.226 147.792 563.408 139.484 563.408C131.106 563.408 123.497 562.155 116.657 559.648C109.818 557.142 104.017 553.614 99.255 549.067C94.4926 544.519 90.8403 539.023 88.298 532.578C85.7556 526.132 84.4845 518.935 84.4845 510.986C84.4845 503.395 85.7556 496.359 88.298 489.878C90.8403 483.396 94.2778 477.846 98.6105 473.227C102.943 468.608 108.046 464.991 113.918 462.378C119.79 459.764 126.021 458.457 132.609 458.457C139.484 458.457 145.464 459.889 150.549 462.753C155.634 465.618 159.322 469.808 161.613 475.322L161.613 460.82L181.486 460.82L181.486 507.441L161.613 507.441C161.613 498.632 159.196 491.596 154.362 486.333C149.528 481.069 143.244 478.437 135.51 478.437C132.43 478.437 129.19 479.064 125.788 480.317C122.387 481.57 119.271 483.522 116.442 486.171C113.614 488.821 111.268 492.187 109.406 496.269C107.544 500.351 106.613 505.257 106.613 510.986C106.613 516.572 107.509 521.388 109.299 525.434C111.089 529.48 113.435 532.81 116.335 535.424C119.235 538.038 122.673 540.008 126.648 541.333C130.622 542.657 134.722 543.32 138.947 543.32C146.18 543.32 152.465 542.192 157.8 539.936C163.135 537.68 167.736 534.69 171.604 530.966L182.99 546.65Z"/>
<path d="M303.426 510.986C303.426 518.792 302.191 525.882 299.72 532.255C297.249 538.629 293.704 544.126 289.085 548.745C284.466 553.364 278.934 556.962 272.488 559.541C266.043 562.119 258.846 563.408 250.897 563.408C243.091 563.408 235.965 562.119 229.52 559.541C223.074 556.962 217.542 553.364 212.923 548.745C208.304 544.126 204.759 538.629 202.288 532.255C199.817 525.882 198.582 518.792 198.582 510.986C198.582 503.395 199.817 496.359 202.288 489.878C204.759 483.396 208.304 477.81 212.923 473.12C217.542 468.429 223.074 464.812 229.52 462.27C235.965 459.728 243.091 458.457 250.897 458.457C258.846 458.457 266.043 459.728 272.488 462.27C278.934 464.812 284.466 468.429 289.085 473.12C293.704 477.81 297.249 483.396 299.72 489.878C302.191 496.359 303.426 503.395 303.426 510.986ZM281.297 510.986C281.297 506.474 280.599 502.195 279.202 498.149C277.806 494.103 275.783 490.647 273.133 487.783C270.483 484.918 267.278 482.644 263.519 480.962C259.759 479.279 255.552 478.437 250.897 478.437C246.17 478.437 241.945 479.279 238.221 480.962C234.497 482.644 231.346 484.918 228.768 487.783C226.19 490.647 224.202 494.103 222.806 498.149C221.409 502.195 220.711 506.474 220.711 510.986C220.711 515.712 221.409 520.009 222.806 523.877C224.202 527.744 226.19 531.145 228.768 534.082C231.346 537.018 234.497 539.292 238.221 540.903C241.945 542.514 246.17 543.32 250.897 543.32C255.552 543.32 259.759 542.514 263.519 540.903C267.278 539.292 270.483 537.018 273.133 534.082C275.783 531.145 277.806 527.744 279.202 523.877C280.599 520.009 281.297 515.712 281.297 510.986Z"/>
<path d="M409.682 560.937L387.445 560.937L387.445 499.17C387.445 491.364 385.977 485.957 383.041 482.949C380.105 479.941 375.844 478.437 370.258 478.437C362.022 478.437 355.308 481.767 350.116 488.427C344.924 495.087 342.328 504.29 342.328 516.035L342.328 560.937L320.092 560.937L320.092 460.82L342.328 460.82L342.328 485.957C344.548 477.291 348.666 470.542 354.682 465.708C360.697 460.874 368.109 458.457 376.918 458.457C387.159 458.457 395.18 461.787 400.981 468.447C406.781 475.107 409.682 485.348 409.682 499.17L409.682 560.937Z"/>
<path d="M530.117 529.033C528.971 539.56 524.836 547.921 517.71 554.116C510.584 560.31 501.686 563.408 491.016 563.408C485.143 563.408 479.772 562.441 474.902 560.507C470.033 558.574 465.879 555.888 462.442 552.451C459.004 549.013 456.336 544.878 454.439 540.044C452.541 535.21 451.592 529.928 451.592 524.199L451.592 480.908L428.926 480.908L428.926 460.82L451.592 460.82L451.592 420.752L473.828 420.752L473.828 460.82L515.83 460.82L515.83 480.908L473.828 480.908L473.828 524.199C473.828 530.644 475.404 535.442 478.555 538.593C481.706 541.744 485.859 543.32 491.016 543.32C497.318 543.32 502.009 541.494 505.088 537.841C508.167 534.189 509.994 529.785 510.567 524.628L530.117 529.033Z"/>
<path d="M563.434 519.365C564.508 526.24 567.784 531.951 573.263 536.499C578.741 541.046 586.1 543.32 595.338 543.32C602.571 543.32 608.855 542.192 614.191 539.936C619.526 537.68 624.127 534.69 627.994 530.966L639.381 546.65C632.936 553.095 626.114 557.5 618.917 559.863C611.72 562.226 603.86 563.408 595.338 563.408C587.604 563.408 580.406 562.119 573.746 559.541C567.086 556.962 561.321 553.364 556.451 548.745C551.581 544.126 547.768 538.629 545.011 532.255C542.254 525.882 540.875 518.792 540.875 510.986C540.875 503.395 542.146 496.394 544.689 489.985C547.231 483.575 550.812 478.025 555.431 473.335C560.05 468.644 565.582 464.991 572.027 462.378C578.473 459.764 585.598 458.457 593.404 458.457C601.497 458.457 608.837 459.835 615.426 462.592C622.014 465.35 627.654 469.342 632.345 474.57C637.036 479.798 640.706 486.189 643.356 493.745C646.005 501.3 647.33 509.84 647.33 519.365L563.434 519.365ZM622.193 499.814C621.048 493.369 617.718 488.195 612.203 484.292C606.689 480.389 600.423 478.437 593.404 478.437C586.386 478.437 580.084 480.389 574.498 484.292C568.912 488.195 565.546 493.369 564.4 499.814L622.193 499.814Z"/>
<path d="M759.602 560.937L712.121 560.937L712.121 540.957L720.93 540.957L707.287 520.009L693.859 540.957L702.024 540.957L702.024 560.937L654.973 560.937L654.973 540.957L669.475 540.957L691.926 510.127L670.549 480.908L657.121 480.908L657.121 460.82L702.238 460.82L702.238 480.908L695.149 480.908L707.287 500.244L719.641 480.908L711.692 480.908L711.692 460.82L757.238 460.82L757.238 480.908L744.24 480.908L722.863 510.127L745.315 540.957L759.602 540.957L759.602 560.937Z"/>
<path d="M872.41 529.033C871.264 539.56 867.129 547.921 860.003 554.116C852.877 560.31 843.979 563.408 833.309 563.408C827.436 563.408 822.065 562.441 817.195 560.507C812.326 558.574 808.172 555.888 804.734 552.451C801.297 549.013 798.629 544.878 796.732 540.044C794.834 535.21 793.885 529.928 793.885 524.199L793.885 480.908L771.219 480.908L771.219 460.82L793.885 460.82L793.885 420.752L816.121 420.752L816.121 460.82L858.123 460.82L858.123 480.908L816.121 480.908L816.121 524.199C816.121 530.644 817.697 535.442 820.848 538.593C823.999 541.744 828.152 543.32 833.309 543.32C839.611 543.32 844.302 541.494 847.381 537.841C850.46 534.189 852.287 529.785 852.859 524.628L872.41 529.033Z"/>
<path d="M91.8966 630.82L114.133 630.82L114.133 639.843C118.358 636.048 122.637 633.201 126.97 631.303C131.303 629.406 136.262 628.457 141.848 628.457C148.293 628.457 154.273 629.764 159.787 632.378C165.302 634.991 170.028 638.608 173.967 643.227C177.906 647.846 181.021 653.396 183.313 659.878C185.604 666.359 186.75 673.395 186.75 680.986C186.75 688.649 185.604 695.703 183.313 702.148C181.021 708.593 177.906 714.126 173.967 718.745C170.028 723.364 165.302 726.962 159.787 729.541C154.273 732.119 148.293 733.408 141.848 733.408C136.262 733.408 131.303 732.405 126.97 730.4C122.637 728.395 118.358 725.494 114.133 721.699L114.133 771.005L91.8966 771.005L91.8966 630.82ZM114.133 704.082C116.783 707.018 120.166 709.292 124.284 710.903C128.402 712.514 132.359 713.32 136.154 713.32C144.533 713.32 151.355 710.348 156.618 704.404C161.882 698.46 164.514 690.654 164.514 680.986C164.514 671.318 161.882 663.476 156.618 657.461C151.355 651.445 144.533 648.437 136.154 648.437C132.359 648.437 128.402 649.207 124.284 650.747C120.166 652.286 116.783 654.524 114.133 657.461L114.133 704.082Z"/>
<path d="M298.377 654.56C295.727 653.271 293.024 652.286 290.267 651.606C287.51 650.926 284.341 650.586 280.76 650.586C275.818 650.586 271.181 651.32 266.849 652.788C262.516 654.256 258.774 656.458 255.623 659.394C252.472 662.33 250.019 666.001 248.265 670.405C246.51 674.809 245.633 680.019 245.633 686.035L245.633 710.957L268.084 710.957L268.084 730.937L200.731 730.937L200.731 710.957L223.397 710.957L223.397 650.908L200.731 650.908L200.731 630.82L245.633 630.82L245.633 655.957C249.285 645.931 254.674 638.841 261.8 634.687C268.926 630.533 277.394 628.457 287.205 628.457C290.285 628.457 293.507 628.779 296.873 629.423C300.239 630.068 303.533 631.214 306.756 632.861L298.377 654.56Z"/>
<path d="M417.524 680.986C417.524 688.792 416.288 695.882 413.817 702.255C411.347 708.629 407.802 714.126 403.183 718.745C398.564 723.364 393.031 726.962 386.586 729.541C380.141 732.119 372.943 733.408 364.994 733.408C357.188 733.408 350.063 732.119 343.617 729.541C337.172 726.962 331.64 723.364 327.021 718.745C322.401 714.126 318.857 708.629 316.386 702.255C313.915 695.882 312.68 688.792 312.68 680.986C312.68 673.395 313.915 666.359 316.386 659.878C318.857 653.396 322.401 647.81 327.021 643.12C331.64 638.429 337.172 634.812 343.617 632.27C350.063 629.728 357.188 628.457 364.994 628.457C372.943 628.457 380.141 629.728 386.586 632.27C393.031 634.812 398.564 638.429 403.183 643.12C407.802 647.81 411.347 653.396 413.817 659.878C416.288 666.359 417.524 673.395 417.524 680.986ZM395.395 680.986C395.395 676.474 394.696 672.195 393.3 668.149C391.903 664.103 389.88 660.647 387.231 657.783C384.581 654.918 381.376 652.644 377.616 650.962C373.857 649.279 369.649 648.437 364.994 648.437C360.268 648.437 356.042 649.279 352.318 650.962C348.595 652.644 345.443 654.918 342.865 657.783C340.287 660.647 338.3 664.103 336.903 668.149C335.507 672.195 334.809 676.474 334.809 680.986C334.809 685.712 335.507 690.009 336.903 693.877C338.3 697.744 340.287 701.145 342.865 704.082C345.443 707.018 348.595 709.292 352.318 710.903C356.042 712.514 360.268 713.32 364.994 713.32C369.649 713.32 373.857 712.514 377.616 710.903C381.376 709.292 384.581 707.018 387.231 704.082C389.88 701.145 391.903 697.744 393.3 693.877C394.696 690.009 395.395 685.712 395.395 680.986Z"/>
<path d="M530.117 699.033C528.971 709.56 524.836 717.921 517.71 724.116C510.584 730.31 501.686 733.408 491.016 733.408C485.143 733.408 479.772 732.441 474.902 730.507C470.033 728.574 465.879 725.888 462.442 722.451C459.004 719.013 456.336 714.878 454.439 710.044C452.541 705.21 451.592 699.928 451.592 694.199L451.592 650.908L428.926 650.908L428.926 630.82L451.592 630.82L451.592 590.752L473.828 590.752L473.828 630.82L515.83 630.82L515.83 650.908L473.828 650.908L473.828 694.199C473.828 700.644 475.404 705.442 478.555 708.593C481.706 711.744 485.859 713.32 491.016 713.32C497.318 713.32 502.009 711.494 505.088 707.841C508.167 704.189 509.994 699.785 510.567 694.628L530.117 699.033Z"/>
<path d="M645.719 680.986C645.719 688.792 644.484 695.882 642.013 702.255C639.542 708.629 635.997 714.126 631.378 718.745C626.759 723.364 621.227 726.962 614.781 729.541C608.336 732.119 601.139 733.408 593.19 733.408C585.384 733.408 578.258 732.119 571.813 729.541C565.367 726.962 559.835 723.364 555.216 718.745C550.597 714.126 547.052 708.629 544.581 702.255C542.11 695.882 540.875 688.792 540.875 680.986C540.875 673.395 542.11 666.359 544.581 659.878C547.052 653.396 550.597 647.81 555.216 643.12C559.835 638.429 565.367 634.812 571.813 632.27C578.258 629.728 585.384 628.457 593.19 628.457C601.139 628.457 608.336 629.728 614.781 632.27C621.227 634.812 626.759 638.429 631.378 643.12C635.997 647.81 639.542 653.396 642.013 659.878C644.484 666.359 645.719 673.395 645.719 680.986ZM623.59 680.986C623.59 676.474 622.892 672.195 621.495 668.149C620.099 664.103 618.076 660.647 615.426 657.783C612.776 654.918 609.571 652.644 605.812 650.962C602.052 649.279 597.845 648.437 593.19 648.437C588.463 648.437 584.238 649.279 580.514 650.962C576.79 652.644 573.639 654.918 571.061 657.783C568.483 660.647 566.495 664.103 565.099 668.149C563.702 672.195 563.004 676.474 563.004 680.986C563.004 685.712 563.702 690.009 565.099 693.877C566.495 697.744 568.483 701.145 571.061 704.082C573.639 707.018 576.79 709.292 580.514 710.903C584.238 712.514 588.463 713.32 593.19 713.32C597.845 713.32 602.052 712.514 605.812 710.903C609.571 709.292 612.776 707.018 615.426 704.082C618.076 701.145 620.099 697.744 621.495 693.877C622.892 690.009 623.59 685.712 623.59 680.986Z"/>
<path d="M753.479 716.65C747.033 723.095 740.248 727.5 733.122 729.863C725.997 732.226 718.28 733.408 709.973 733.408C701.594 733.408 693.985 732.155 687.146 729.648C680.306 727.142 674.506 723.614 669.743 719.067C664.981 714.519 661.329 709.023 658.786 702.578C656.244 696.132 654.973 688.935 654.973 680.986C654.973 673.395 656.244 666.359 658.786 659.878C661.329 653.396 664.766 647.846 669.099 643.227C673.431 638.608 678.534 634.991 684.406 632.378C690.279 629.764 696.509 628.457 703.098 628.457C709.973 628.457 715.953 629.889 721.037 632.753C726.122 635.618 729.81 639.808 732.102 645.322L732.102 630.82L751.975 630.82L751.975 677.441L732.102 677.441C732.102 668.632 729.685 661.596 724.851 656.333C720.017 651.069 713.733 648.437 705.998 648.437C702.919 648.437 699.678 649.064 696.276 650.317C692.875 651.57 689.76 653.522 686.931 656.171C684.102 658.821 681.757 662.187 679.895 666.269C678.033 670.351 677.102 675.257 677.102 680.986C677.102 686.572 677.997 691.388 679.787 695.434C681.578 699.48 683.923 702.81 686.823 705.424C689.724 708.038 693.161 710.008 697.136 711.333C701.11 712.657 705.21 713.32 709.436 713.32C716.669 713.32 722.953 712.192 728.288 709.936C733.623 707.68 738.225 704.69 742.092 700.966L753.479 716.65Z"/>
<path d="M873.914 680.986C873.914 688.792 872.679 695.882 870.208 702.255C867.737 708.629 864.192 714.126 859.573 718.745C854.954 723.364 849.422 726.962 842.977 729.541C836.531 732.119 829.334 733.408 821.385 733.408C813.579 733.408 806.453 732.119 800.008 729.541C793.563 726.962 788.03 723.364 783.411 718.745C778.792 714.126 775.247 708.629 772.776 702.255C770.306 695.882 769.07 688.792 769.07 680.986C769.07 673.395 770.306 666.359 772.776 659.878C775.247 653.396 778.792 647.81 783.411 643.12C788.03 638.429 793.563 634.812 800.008 632.27C806.453 629.728 813.579 628.457 821.385 628.457C829.334 628.457 836.531 629.728 842.977 632.27C849.422 634.812 854.954 638.429 859.573 643.12C864.192 647.81 867.737 653.396 870.208 659.878C872.679 666.359 873.914 673.395 873.914 680.986ZM851.785 680.986C851.785 676.474 851.087 672.195 849.691 668.149C848.294 664.103 846.271 660.647 843.621 657.783C840.971 654.918 837.767 652.644 834.007 650.962C830.247 649.279 826.04 648.437 821.385 648.437C816.658 648.437 812.433 649.279 808.709 650.962C804.985 652.644 801.834 654.918 799.256 657.783C796.678 660.647 794.691 664.103 793.294 668.149C791.898 672.195 791.199 676.474 791.199 680.986C791.199 685.712 791.898 690.009 793.294 693.877C794.691 697.744 796.678 701.145 799.256 704.082C801.834 707.018 804.985 709.292 808.709 710.903C812.433 712.514 816.658 713.32 821.385 713.32C826.04 713.32 830.247 712.514 834.007 710.903C837.767 709.292 840.971 707.018 843.621 704.082C846.271 701.145 848.294 697.744 849.691 693.877C851.087 690.009 851.785 685.712 851.785 680.986Z"/>
<path d="M969.535 730.937L902.289 730.937L902.289 710.957L924.203 710.957L924.203 610.839L902.289 610.839L902.289 590.752L946.44 590.752L946.44 710.957L969.535 710.957L969.535 730.937Z"/>
</g>
</g>
</svg>
